<svg version="1.0" xmlns="http://www.w3.org/2000/svg" width="576" height="576" viewBox="0 0 432 432"><path d="M192.6 2.8c-2.6.5-8.6 4.4-10.8 6.9-4.6 5.1-6.1 14.9-3.3 21.6 1.4 3.3 1.3 3.6-.3 4.2-2.3.7-9.2 7.2-12.3 11.5-9.4 12.8-10.8 30.5-3.7 44.5 1.3 2.4 1.7 4 1 4.3-4.9 1.6-10.3 10-10.7 16.7-.3 4.8 1.8 11.1 4.7 14.2 2 2.1 2 2.4.5 6.1-1.2 3-1.5 6.7-1.2 15.3.3 10.7 1.1 14.8 5 24.1.5 1.2.3 1.8-.7 1.8-2.2 0-8.8 6.8-10.5 10.8-1.7 4.1-1.9 11.6-.3 15.7 1.7 4.4 5.7 9.3 9.1 11 2.8 1.5 2.9 1.8 2.4 6.8-1.5 14.3-1.2 25 1 33.9.6 2.2.3 2.6-2.2 3.1-4.3.9-10.9 6.1-13.8 11.1-3.4 5.9-4.2 14.8-1.7 21 3.6 9.3 12.3 15.5 22.2 15.9l5 .1 2.6 8.1c1.4 4.4 2.9 8.9 3.4 10 .9 2 16.9 49.3 27.6 81.5 3.1 9.1 5.9 17.4 6.4 18.5.4 1.1 1.1 2.8 1.4 3.8 1.2 3.7 3.4 1.6 6.1-6.1 9.3-26.5 28.8-81 29.5-82.7.8-1.9 2.4-6.4 13.2-37.5l4-11.5h6.3c5.2 0 6.8-.5 10.3-2.8 7.1-5 9.5-14.3 5.8-22.4-3.2-7.2-12.9-11.6-20.5-9.4l-3.3 1 .6-3.1c.3-1.7.6-3.4.6-3.8 0-.4 2.6-.7 5.8-.6 9.5.1 16.3-5.8 16.4-14.2 0-9.5-6.6-16.5-15.4-16.4-4.1.1-4.2 0-2.9-2.6 4.1-7.4 5.4-19.5 3.4-29.7-1.1-5-1.2-7.9-.5-10.2 1.1-3.7.2-9.1-2.2-12.8-.9-1.4-1.2-2.5-.7-2.5 2 0 5.4-7.2 5.4-11.5 0-8.2-7.7-15.4-15.2-14.3-1.7.3-3.1.4-3.1.3 0-.1.9-2.7 1.9-5.8 1.5-4.4 1.9-8 1.8-15.9-.2-10-.1-10.4 2.5-12.6 5.9-5 6.1-15.2.3-20.8-4.1-4-9.5-5.1-15.3-3.1l-4.2 1.5-.1-4.7c-.1-6.6-.8-9.9-3.1-15.6-3.7-8.7-10.5-16.4-18.5-20.7l-4.2-2.2.6-6.2c.3-3.7.1-7.5-.7-9.8-1.5-4.6-6-10-10.3-12.2-3.1-1.6-11.2-2.4-15.1-1.6z"/><path d="M147.4 132.2c-16.1 14.1-20 19.3-20.7 27.3-1.2 12.9 13.6 18.6 19.3 7.5 2-3.9 2.5-7 3.5-19.5.7-8.4 2.1-17 3-18.6 1.2-1.8-.4-.8-5.1 3.3zM275 159.3c0 .1.5 1.8 1 3.7.6 1.9 1.3 6.6 1.5 10.5 1.3 17.1 1.9 20.6 4.7 25.2 4.3 7.1 14.8 5.8 17.8-2.2 3.3-8.8-3.3-20.9-17.5-31.7-1.6-1.2-3.6-3-4.3-4-1.1-1.5-3.2-2.5-3.2-1.5zM149 221.1c-17.1 14.5-21.3 20.3-21.4 29.3-.1 7.8 4.8 13.1 11 12 8.3-1.5 10.4-6.5 11.8-27.4.3-3.6 1-8.7 1.6-11.4.6-2.7.9-5 .8-5.2-.2-.1-1.9 1.1-3.8 2.7z"/></svg>