<svg xmlns="http://www.w3.org/2000/svg" aria-hidden="true" style="position:absolute;width:0;height:0;overflow:hidden">
    <defs>
        <symbol id="icon-arrow" viewBox="0 0 82 32">
            <path fill="#fcfcfc" style="fill: var(--color1, #fcfcfc)" d="M81.414 17.414c0.362-0.362 0.586-0.862 0.586-1.414s-0.224-1.052-0.586-1.414l-12.728-12.728c-0.364-0.377-0.874-0.611-1.439-0.611-1.105 0-2 0.895-2 2 0 0.565 0.234 1.074 0.61 1.438l0.001 0.001 11.314 11.314-11.314 11.314c-0.347 0.359-0.561 0.849-0.561 1.389 0 1.105 0.895 2 2 2 0.54 0 1.030-0.214 1.39-0.562l-0.001 0.001 12.728-12.728zM0 18h80v-4h-80v4z"></path>
        </symbol>
        <symbol id="icon-buy_now" viewBox="0 0 32 32">
            <path d="M10.587 3.272c-0.361 0.362-0.585 0.861-0.585 1.413s0.223 1.051 0.585 1.413l9.899 9.901-9.899 9.899c-0.333 0.356-0.537 0.836-0.537 1.363 0 1.105 0.895 2 2 2 0.527 0 1.007-0.204 1.365-0.538l-0.001 0.001 11.315-11.312c0.361-0.362 0.585-0.861 0.585-1.413s-0.224-1.052-0.585-1.413l-11.315-11.315c-0.362-0.361-0.861-0.585-1.413-0.585s-1.052 0.224-1.413 0.585l0-0z"></path>
        </symbol>
        <symbol id="icon-Burger" viewBox="0 0 32 32">
            <path fill="#fff" d="M26.733 14.667H5.266c-.7 0-1.267.567-1.267 1.267v.133c0 .7.567 1.267 1.267 1.267h21.467c.7 0 1.267-.567 1.267-1.267v-.133c0-.7-.567-1.267-1.267-1.267zM26.733 21.333H5.266c-.7 0-1.267.567-1.267 1.267v.133c0 .7.567 1.267 1.267 1.267h21.467c.7 0 1.267-.567 1.267-1.267V22.6c0-.7-.567-1.267-1.267-1.267zM26.733 8H5.266c-.7 0-1.267.567-1.267 1.267V9.4c0 .7.567 1.267 1.267 1.267h21.467c.7 0 1.267-.567 1.267-1.267v-.133C28 8.567 27.433 8 26.733 8z" style="fill:var(--color1, #fff)"/>
        </symbol>
        <symbol id="icon-cow" viewBox="0 0 31 32">
            <path d="M6.002.778c-.254.219-.979 1.733-1.24 2.559-.31 1.024-.416 1.791-.373 2.852.056 1.514.437 2.661 1.275 3.861.218.314.394.585.394.607 0 .015-.134.029-.303.029-.726 0-2.085.241-3.128.556C.972 11.739 0 12.609 0 13.582c0 .344.31.929.641 1.228.641.578 2.043 1.126 3.55 1.389.521.095 2.071.256 2.416.263.063 0 .085.336.085 1.44 0 .951.035 1.689.106 2.142.254 1.623 1.043 3.341 2.085 4.555l.359.417-.24.387c-.352.548-.486.965-.528 1.587-.106 1.492.824 2.815 2.62 3.744 3.423 1.777 8.742 1.082 10.735-1.404.972-1.214 1.085-2.603.317-3.861l-.239-.388.43-.519c.803-.965 1.324-1.93 1.719-3.151.331-1.038.458-2.04.458-3.627 0-.724.021-1.323.056-1.323.324-.007 1.881-.175 2.374-.263 1.515-.263 2.888-.804 3.55-1.389.331-.3.641-.885.641-1.228 0-1.082-1.099-1.96-3.142-2.486-.669-.175-1.93-.387-2.543-.424l-.289-.022.317-.439c.394-.534.888-1.572 1.078-2.252.535-1.967.204-4.255-.944-6.442-.479-.907-.81-1.119-1.198-.76-.148.139-.211.329-.352 1.016-.437 2.186-1.247 3.919-2.43 5.199l-.521.57H9.967l-.465-.505c-1.155-1.272-1.993-3.071-2.43-5.264-.141-.687-.204-.877-.352-1.016-.232-.212-.458-.205-.718.022zm.901 4.336c.373.819.838 1.587 1.388 2.296l.437.563-.458.344a4.6 4.6 0 0 0-1.141 1.331l-.134.241-.338-.461c-1.155-1.594-1.444-3.546-.831-5.571.296-.98.289-.972.556-.124.127.409.366 1.031.521 1.382zm18.336-1.543a7.22 7.22 0 0 1 .402 2.464c0 1.331-.352 2.457-1.092 3.466l-.331.453-.247-.417a4.38 4.38 0 0 0-1.233-1.353c-.19-.124-.338-.249-.338-.263 0-.022.134-.19.303-.373.782-.87 1.62-2.435 2.036-3.78.127-.417.254-.76.275-.76s.127.256.225.563zM21.64 8.916c.782.329 1.529 1.272 1.648 2.069.063.439.211.717.402.76.084.015.669.066 1.296.11 2.226.146 3.98.621 4.727 1.272.345.307.31.563-.106.877-.831.629-2.627 1.104-4.459 1.184-1.212.051-1.465.088-1.627.256-.12.124-.134.256-.134 1.579 0 1.791-.092 2.822-.317 3.656-.317 1.133-.944 2.34-1.677 3.195l-.303.351-.627-.373a7.77 7.77 0 0 0-2.325-.943c-2.67-.636-5.621-.249-7.608 1.002l-.458.293-.289-.344c-.394-.461-1.014-1.448-1.261-2.003-.542-1.258-.704-2.281-.704-4.533 0-2.186.113-2.025-1.507-2.113-2.071-.11-3.649-.483-4.642-1.111-.733-.468-.613-.885.409-1.375.979-.475 2.325-.76 4.191-.877 1.451-.095 1.486-.117 1.62-.819.197-1.06.979-1.938 1.965-2.215.246-.073 1.627-.088 5.854-.08l5.53.015.401.168zm-3.959 15.135c1.726.424 3.015 1.214 3.571 2.193.134.227.19.461.218.819.028.446.007.556-.162.921-.782 1.66-3.656 2.756-6.579 2.508-3.515-.293-5.826-2.252-4.917-4.175.493-1.038 2.163-2.033 3.924-2.325.289-.044.578-.095.634-.11s.69-.015 1.409 0c.979.022 1.451.066 1.902.168z"/>
            <path d="M10.693 12.579c-.437.146-.733.336-1.127.731-.345.329-.373.717-.085.95.268.219.521.19.845-.095.409-.358.726-.505 1.12-.505.394-.007.697.132 1.12.505.324.285.578.314.845.095.141-.117.183-.212.183-.431 0-.227-.049-.329-.296-.578-.697-.702-1.733-.972-2.606-.673zM18.906 12.571c-.451.168-1.029.548-1.261.833-.225.278-.232.592 0 .826.232.249.514.234.852-.044.831-.687 1.451-.709 2.219-.073.197.168.423.3.493.3.345 0 .627-.307.627-.673 0-.234-.585-.775-1.113-1.031-.585-.285-1.282-.336-1.817-.139zM11.714 26.106c-.204.197-.275.483-.169.709.078.183.197.256.683.388.218.058.31.132.387.314.099.241.106.241.648.263l.542.022v-.205c-.007-.293-.169-.717-.38-1.009-.247-.336-.676-.556-1.162-.6-.331-.029-.416-.015-.549.117zM18.442 26.054c-.352.095-.859.57-1 .943a2.54 2.54 0 0 0-.134.665c-.014.314.014.388.183.541.416.366.965.08.965-.504 0-.285.211-.483.585-.556.394-.073.535-.234.542-.607 0-.49-.437-.68-1.141-.483z"/>
        </symbol>
        <symbol id="icon-facebook" viewBox="0 0 32 32">
            <path fill="#f8d24e" d="M16 32c8.837 0 16-7.163 16-16S24.837 0 16 0 0 7.163 0 16s7.163 16 16 16z" style="fill:var(--color2, #f8d24e)"/>
            <path fill="#84a178" d="M20.446 15.982h-2.61v9.619h-3.955v-9.619H12v-3.38h1.881v-2.187c0-1.564.739-4.014 3.99-4.014l2.929.012v3.281h-2.125c-.349 0-.839.175-.839.921v1.989h2.955l-.346 3.377z" style="fill:var(--color3, #84a178)"/>
        </symbol>
        <symbol id="icon-github" viewBox="0 0 32 32">
            <path fill="#f8d24e" d="M32 16c0 8.837-7.163 16-16 16S0 24.837 0 16 7.163 0 16 0s16 7.163 16 16z" style="fill:var(--color2, #f8d24e)"/>
            <path fill="#84a178" d="M16 6.588c-5.169 0-9.412 4.242-9.412 9.412 0 4.411 3.095 8.419 7.206 9.412v-3.114a2.307 2.307 0 0 1-1.197-.03c-.556-.164-1.008-.535-1.344-1.1-.214-.361-.593-.752-.988-.723l-.097-1.099c.855-.073 1.595.521 2.034 1.259.195.328.419.52.708.605.278.082.578.043.926-.08.088-.698.407-.959.648-1.326v-.001c-2.451-.366-3.428-1.666-3.816-2.693-.514-1.363-.238-3.066.671-4.142.018-.021.05-.076.037-.114-.417-1.258.091-2.299.11-2.41.481.142.559-.143 2.089.786l.264.159c.111.066.076.028.186.02A8.031 8.031 0 0 1 16 11.131a8.016 8.016 0 0 1 2.002.285l.086.009c-.007-.001.023-.005.075-.036 1.911-1.157 1.842-.779 2.355-.946.019.111.519 1.169.107 2.411-.056.171 1.657 1.739.708 4.256-.388 1.027-1.365 2.328-3.816 2.693v.001c.314.479.692.734.69 1.722v3.887c4.111-.993 7.206-5 7.206-9.412 0-5.169-4.242-9.412-9.412-9.412z" style="fill:var(--color3, #84a178)"/>
        </symbol>
        <symbol id="icon-ice-crema" viewBox="0 0 32 32">
            <path d="M16.108.107c.08.214.241 1.252.241 1.573 0 .797-.295 1.54-.837 2.122-.449.482-.897.75-1.975 1.185-1.198.489-1.694.783-2.256 1.339-.569.569-.904 1.192-1.024 1.921-.134.797 0 1.359.408 1.68l.208.161-.328.208c-.663.435-1.868 1.459-2.075 1.774-.402.603-.361 1.165.094 1.392l.214.107-.241.228c-.361.341-.435.576-.382 1.192.033.408.02.629-.074.964-.114.435-.114.442.033.75.147.301.562.683.937.843.181.08.187.107.228.723.02.355.053 1.486.08 2.517.02 1.031.067 1.975.107 2.089a.79.79 0 0 0 .274.361c.388.268.656.556.83.89.194.382.408 1.319 1.058 4.559l.455 2.276.281.268c.536.529 1.56.77 3.247.77 1.694 0 2.705-.234 3.24-.763l.288-.274.415-2.109c.917-4.613.997-4.867 1.714-5.436.221-.181.435-.402.475-.502.047-.114.094-.991.127-2.316.027-1.178.067-2.343.094-2.591l.04-.449.435-.328c.549-.422.763-.803.763-1.393-.007-.696-.462-1.459-1.292-2.142l-.395-.321.194-.274c.81-1.118.301-2.664-1.205-3.695l-.455-.315.167-.174c.743-.797.864-3.173.241-4.827-.375-.984-1.232-2.055-2.283-2.845C17.659.857 16.239 0 16.112 0c-.027 0-.027.047-.007.107zm1.928 2.336c.355.348.783.823.951 1.064.997 1.392 1.252 3.14.649 4.425-.241.522-.964 1.299-1.633 1.761-1.024.71-3.327 1.901-4.934 2.557-2.584 1.051-4.084 1.252-4.258.562-.067-.261.127-.469.951-1.018.743-.509 4.077-2.986 4.137-3.086.02-.027-.321.127-.75.341-1.453.736-2.142.596-2.109-.428.02-.743.556-1.587 1.299-2.069.187-.12.77-.388 1.305-.603 1.761-.71 2.296-1.071 2.892-1.962.355-.529.743-1.506.77-1.921.007-.147.034-.261.054-.261s.321.288.676.636zm1.828 7.606c.489.274.997.743 1.218 1.111.388.663.187 1.325-.649 2.169-.91.924-2.464 1.808-4.171 2.37-1.573.515-3.079.756-5.235.83l-1.339.047.87.054c1.125.074 3.3.007 4.144-.127 2.243-.355 4.151-1.064 5.516-2.042.308-.221.629-.402.716-.402.221 0 1.185.924 1.379 1.312.107.221.134.382.114.596-.1.89-1.185 1.366-3.802 1.68-3.2.382-7.384.007-9.172-.817-.844-.388-.984-.609-.77-1.198.067-.187.08-.408.054-.723-.033-.415-.027-.469.12-.623.335-.361.897-.569 2.959-1.091a28.11 28.11 0 0 0 2.176-.656c1.138-.415 3.274-1.493 4.264-2.156.93-.616 1.064-.643 1.607-.335zm-8.89 8.194c1.406.408 2.651.529 4.967.482 1.741-.034 2.812-.141 4.358-.415.315-.053.589-.1.623-.1.074 0 .053 2.571-.027 3.247-.087.716-.281 1.272-.489 1.406-.214.141-1.285.288-2.718.368-2.939.161-5.958 0-6.895-.375-.509-.207-.562-.475-.569-2.959 0-1.654.013-1.881.1-1.848.053.02.348.107.649.194zm1.586 5.69c.482.06 1.004.121 1.165.141l.288.034-.254.281c-.328.355-.83 1.064-1.011 1.426-.207.415-.274.442-.582.274l-.261-.147-.147-.91c-.08-.495-.167-.971-.187-1.051-.06-.174-.12-.174.991-.047zm7.137-.074c0 .013-.033.187-.067.382-.04.201-.208 1.292-.375 2.43-.341 2.377-.569 3.495-.777 3.869-.288.502-.977.797-2.095.89-.435.034-1.747-.053-1.821-.12-.053-.06 1.098-1.486 1.279-1.58.167-.094.214-.08.783.214.663.348.997.402.997.181s-.174-.435-.602-.73c-.395-.281-.536-.442-.536-.629 0-.053.194-.355.428-.669s.576-.817.75-1.118l.328-.542.301.04c.609.087.77.08.75-.053-.013-.067-.127-.261-.254-.422-.127-.167-.228-.335-.228-.368 0-.127.623-1.299.823-1.546.174-.214.315-.321.315-.228zm-4.184.536c.335.221 1.593 1.312 1.674 1.446.034.06-1.259 2.082-1.513 2.37-.027.034-.167-.033-.308-.141a22.133 22.133 0 0 0-1.165-.803l-.904-.596.542-.917c.964-1.613.944-1.587 1.151-1.587.107 0 .341.1.522.228zm2.537.241c-.234.288-.428.469-.509.469-.174 0-.455-.154-.93-.502l-.395-.288.79-.047c.428-.02.844-.047.917-.06.536-.087.536-.08.127.428zm-5.061 3.22c.616.241 1.66.81 1.962 1.064.214.174.214.187.127.402a6.675 6.675 0 0 1-.415.716c-.174.268-.375.602-.449.743-.214.415-.281.449-.723.328-.475-.141-.73-.382-.864-.817-.181-.609-.469-2.33-.435-2.598.013-.1.295-.04.797.161z"/>
        </symbol>
        <symbol id="icon-logo" viewBox="0 0 17 32">
            <path fill="#f8d24e" d="M15.959 14.685c1.642-4.393-1.758-6.797-4.012-8.377-.431-.323-.862-.624-1.211-.901-.624-.519-1.083-1.204-1.324-1.972s-.252-1.59-.033-2.365a.454.454 0 0 0-.134-.459c-.063-.057-.14-.096-.224-.112s-.17-.01-.25.018a7.628 7.628 0 0 0-2.09 1.228c-.601.457-1.088 1.043-1.423 1.714s-.511 1.408-.512 2.156c-.425.33-.801.718-1.116 1.151-.58.78-.87 1.732-.823 2.698-.69.625-1.204 1.416-1.492 2.295s-.339 1.817-.15 2.722c-.275.164-.487.412-.605.706s-.135.618-.047.923c.087.304.273.572.53.762s.569.292.89.29h.03v2.498c0 .253.102.497.284.676s.429.28.686.28h.754l1.228 10.493c.026.234.138.45.315.606s.407.244.646.243h5.111c.239 0 .469-.087.647-.244s.291-.372.319-.606l1.228-10.493h.754c.257 0 .504-.101.686-.28s.284-.422.284-.676v-2.498h.03c.39 0 .764-.153 1.039-.424s.43-.64.43-1.024a1.41 1.41 0 0 0-.431-1.032l-.013.004zM4.896 6.715c.621 2.298 3.017 3.203 5.202 4.01a.477.477 0 0 0 .571-.059.458.458 0 0 0-.052-.71.475.475 0 0 0-.188-.079c-2.353-.879-4.573-1.699-4.741-4.048-.039-.646.084-1.291.358-1.879s.692-1.099 1.215-1.49c.328-.269.68-.508 1.052-.714-.024.294-.024.59 0 .884.05.673.237 1.33.549 1.93s.744 1.133 1.27 1.566c.358.302.802.612 1.293.943 1.133.803 2.422 1.699 3.241 2.914a4.482 4.482 0 0 1 .47 4.312h-1.905c-3.926 0-8.438-1.071-9.33-4.07-.177-.617-.176-1.27.004-1.887s.531-1.171 1.013-1.601l-.022-.021zM8.43 21.197l1.44 1.419-1.44 1.419-1.439-1.427 1.439-1.41zm3.301 3.726-1.19 1.172-1.439-1.419 1.439-1.415 1.25 1.228-.06.433zM8.43 28.177l-1.439-1.419 1.439-1.419 1.44 1.419-1.44 1.419zm-.659-3.492-1.439 1.419-1.198-1.181-.052-.425 1.25-1.228 1.439 1.415zm-2.103 2.073-.289.285-.073-.646.362.361zm-.151 1.453.815-.803 1.582 1.572a.72.72 0 0 0 .03.093H5.617l-.099-.862zm5.016-.803.815.803-.099.85H8.857l1.676-1.652zm.948-.365-.289-.285.366-.361-.078.646zm.431-3.713-.72-.722.914-.901-.194 1.623zm-1.383-1.368L9.163 20.62h2.732l-1.366 1.342zm-4.202 0L4.961 20.62h2.732l-1.366 1.342zm4.655 9.074H5.875c-.008-.001-.015-.004-.02-.01s-.009-.012-.01-.02l-.121-1.02h5.413l-.116 1.02c-.001.008-.005.016-.012.021s-.014.008-.023.008h-.004zm3.952-14.801h-1.5a.468.468 0 0 0-.361.119.45.45 0 0 0-.114.529.446.446 0 0 0 .114.155.486.486 0 0 0 .361.119h.534v2.498c-.001.008-.005.016-.011.021s-.014.008-.023.008H2.914c-.008 0-.017-.003-.023-.008s-.01-.013-.011-.021v-2.498h8.537c.116-.011.224-.064.303-.15a.458.458 0 0 0 0-.622.474.474 0 0 0-.303-.15H1.936a.547.547 0 0 1-.409-.136.534.534 0 0 1-.128-.6.542.542 0 0 1 .318-.286.543.543 0 0 1 .219-.025h.978c.116-.011.224-.064.303-.15a.458.458 0 0 0 0-.622.474.474 0 0 0-.303-.15h-.862a4.499 4.499 0 0 1 .94-3.695c.302.926 1.077 2.192 3.017 3.199 1.823.939 4.236 1.419 7.171 1.419h1.724a.543.543 0 0 1 .409.135.518.518 0 0 1 .128.6.542.542 0 0 1-.318.286.562.562 0 0 1-.219.026h.03z" style="fill:var(--color2, #f8d24e)"/>
        </symbol>
        <symbol id="icon-modal_close-line" viewBox="0 0 32 32">
            <path d="m17.253 16 7.369-7.369a.885.885 0 0 0-.047-1.206.893.893 0 0 0-1.207-.047l-7.369 7.369L8.63 7.369a.892.892 0 0 0-1.262 1.262L14.746 16l-7.378 7.369a.891.891 0 0 0-.05 1.304.906.906 0 0 0 .663.26.88.88 0 0 0 .641-.31L16 17.254l7.369 7.369a.886.886 0 0 0 1.207-.047.893.893 0 0 0 .047-1.207L17.254 16z"/>
        </symbol>
        <symbol id="icon-telegram" viewBox="0 0 32 32">
            <path fill="#f8d24e" d="M32 16c0 8.837-7.163 16-16 16S0 24.837 0 16 7.163 0 16 0s16 7.163 16 16z" style="fill:var(--color2, #f8d24e)"/>
            <path fill="#84a178" d="m12.869 18.375-.318 4.169c.454 0 .651-.182.887-.401l2.13-1.9 4.415 3.017c.81.421 1.38.199 1.598-.695l2.898-12.672.001-.001c.257-1.117-.433-1.554-1.222-1.28L6.226 14.698c-1.162.421-1.145 1.026-.198 1.3l4.354 1.264 10.115-5.907c.476-.294.909-.131.553.163l-8.182 6.857z" style="fill:var(--color3, #84a178)"/>
        </symbol>
        <symbol id="icon-weight" viewBox="0 0 32 32">
            <path d="M14.177.547c-3.974.589-7.247 2.796-8.451 5.685-.384.913-.488 1.473-.488 2.573.007.812.037 1.114.162 1.552.259.863.443 1.301.827 1.919l.355.575-.399.489c-3.154 3.924-3.502 9.444-.872 13.793.982 1.632 2.585 3.234 4.152 4.169l.465.273 12.743-.108.303-.165c1.056-.597 2.549-1.926 3.383-3.004a12.61 12.61 0 0 0 2.423-5.621c.118-.74.118-2.932-.007-3.63-.377-2.149-1.182-3.989-2.453-5.621-.244-.309-.436-.568-.436-.589 0-.014.133-.237.288-.489a7.762 7.762 0 0 0 .864-1.962c.199-.719.199-2.516 0-3.234-.709-2.552-2.837-4.679-5.843-5.851C20.351.97 18.91.618 17.98.503c-.864-.101-2.999-.079-3.804.043zm4.499 1.171c3.945.769 6.833 3.184 7.365 6.16.118.668.044 1.804-.155 2.437-.199.618-.569 1.344-1.005 1.962-.177.252-.325.539-.325.633s.155.338.377.582c1.847 2.048 2.822 4.614 2.822 7.389-.007 3.155-1.219 5.922-3.553 8.093-.399.374-.968.841-1.271 1.042l-.554.374-12.211.05-.473-.302c-1.714-1.114-3.258-2.954-4.115-4.909-1.079-2.472-1.189-5.34-.31-7.913.465-1.337 1.086-2.429 2.031-3.579.384-.46.561-.733.561-.863 0-.108-.192-.46-.443-.827-.886-1.287-1.248-2.717-1.034-4.068.222-1.366.842-2.487 1.987-3.601 1.492-1.445 3.575-2.401 6.02-2.76 1.012-.151 3.25-.093 4.285.101z"/>
            <path d="M14.51 2.983c-3.029.496-5.4 2.178-6.176 4.384-.177.496-.207.69-.207 1.402s.03.906.207 1.402c.111.316.318.755.458.977.384.618.554.64 1.315.18a11.949 11.949 0 0 1 3.804-1.488c.916-.187 2.674-.259 3.671-.144 1.559.18 3.25.74 4.602 1.538.384.223.776.41.872.41.561 0 1.278-1.617 1.278-2.875 0-2.796-2.674-5.189-6.464-5.786-.805-.129-2.585-.129-3.361 0zm3.656 1.15c1.271.273 2.438.791 3.317 1.473 1.182.913 1.817 2.185 1.714 3.414-.037.489-.222 1.15-.332 1.222-.029.014-.443-.158-.916-.388a14.721 14.721 0 0 0-3.228-1.1c-.687-.144-.975-.165-2.512-.158-1.514 0-1.832.022-2.489.158a13.254 13.254 0 0 0-3.117 1.064c-1.101.525-1.042.532-1.241-.115-.258-.841-.096-1.955.406-2.796.266-.446.997-1.186 1.529-1.553 1.012-.697 1.899-1.013 3.804-1.358.391-.072 2.563.029 3.066.137zM16.962 13.405c-.207.259-.207.503.007.712.14.137.281.173.79.208.99.072 1.935.359 2.785.848.606.359 1.529 1.229 1.943 1.854.613.898 1.034 2.185 1.034 3.134 0 .331.029.431.185.575.236.237.547.237.776 0 .163-.165.17-.208.125-.913-.207-3.479-3.184-6.382-6.744-6.577l-.739-.043-.163.201z"/>
        </symbol>
        <symbol id="icon-snowflake" viewBox="0 0 32 32">
            <path d="M31.087 15.087h-2.642l1.185-1.184c0.315-0.315 0.315-0.824 0-1.139s-0.824-0.315-1.139-0l-2.324 2.323h-3.905l1.738-1.868c0.303-0.326 0.285-0.835-0.041-1.138-0.133-0.124-0.298-0.194-0.467-0.211-0.102-0.005-2.308-0-2.308-0l2.582-2.582h3.241c0.445 0 0.805-0.36 0.805-0.805s-0.36-0.805-0.805-0.805h-1.631l1.9-1.9c0.315-0.315 0.315-0.824 0-1.139s-0.842-0.314-1.157 0l-1.94 1.922v-1.675c0-0.445-0.36-0.805-0.805-0.805s-0.805 0.36-0.805 0.805v3.286l-2.667 2.685-0.045-2.432c-0-0.004 0.004-0.008 0.004-0.011-0.004-0.196-0.076-0.391-0.222-0.543-0.308-0.32-0.835-0.33-1.156-0.021l-1.713 1.635v-3.782l2.305-2.288c0.315-0.315 0.323-0.824 0.009-1.139s-0.838-0.314-1.152 0l-1.162 1.149v-2.619c0-0.445-0.36-0.805-0.805-0.805s-0.805 0.36-0.805 0.805v2.619l-1.131-1.149c-0.315-0.314-0.815-0.314-1.13 0s-0.328 0.824-0.013 1.139l2.274 2.288v3.804l-1.737-1.662c-0.323-0.306-0.824-0.292-1.13 0.031-0.115 0.122-0.181 0.271-0.206 0.425-0.015 0.063-0.022 0.128-0.022 0.194l-0.009 2.28-2.695-2.679v-3.21c0-0.445-0.36-0.805-0.805-0.805s-0.805 0.36-0.805 0.805v1.599l-1.828-1.846c-0.315-0.314-0.815-0.314-1.13 0s-0.31 0.824 0.005 1.139l1.904 1.9h-1.707c-0.445 0-0.805 0.36-0.805 0.805s0.36 0.805 0.805 0.805h3.317l2.657 2.657-2.476 0.089c-0.432 0.016-0.808 0.369-0.812 0.797-0 0.012-0.037 0.024-0.037 0.036 0 0 0 0.001 0 0.001s0.037 0.002 0.037 0.003c0.005 0.201 0.103 0.401 0.257 0.554l1.701 1.662h-3.729l-2.324-2.324c-0.315-0.314-0.824-0.314-1.139 0s-0.315 0.824 0 1.139l1.184 1.184h-2.718c-0.445 0-0.805 0.36-0.805 0.805s0.36 0.805 0.805 0.805h2.687l-1.153 1.153c-0.315 0.315-0.315 0.824 0 1.139 0.157 0.157 0.364 0.236 0.57 0.236s0.412-0.079 0.57-0.236l2.292-2.292h3.761l-1.638 1.76c-0.303 0.326-0.285 0.835 0.041 1.138 0.155 0.144 0.352 0.216 0.548 0.216 0.004 0 0.007-0.001 0.011-0.001 0.002 0 0.005 0 0.007 0s0.004 0 0.006 0l2.363-0.013-2.698 2.698h-3.286c-0.445 0-0.805 0.36-0.805 0.805s0.36 0.805 0.805 0.805h1.675l-1.868 1.868c-0.315 0.315-0.315 0.824 0 1.139 0.157 0.157 0.364 0.236 0.57 0.236s0.394-0.079 0.552-0.236l1.828-1.846v1.631c0 0.445 0.36 0.805 0.805 0.805s0.805-0.36 0.805-0.805v-3.241l2.732-2.714 0.105 2.619c0.016 0.434 0.378 0.785 0.809 0.776 0.146-0.003 0.305-0.050 0.463-0.166 0.114-0.084 1.69-1.698 1.69-1.698v3.8l-2.252 2.27c-0.315 0.315-0.306 0.824 0.009 1.139 0.157 0.157 0.368 0.236 0.574 0.236s0.397-0.079 0.554-0.236l1.115-1.131v2.642c0 0.445 0.36 0.805 0.805 0.805s0.805-0.36 0.805-0.805v-2.718l1.225 1.207c0.157 0.157 0.372 0.236 0.578 0.236s0.417-0.079 0.574-0.236c0.315-0.315 0.299-0.824-0.016-1.139l-2.361-2.346v-3.834c0 0 1.474 1.385 1.707 1.608s0.423 0.349 0.701 0.349c0.002 0 0.003 0 0.005 0 0.445 0 0.803-0.387 0.801-0.832l-0.033-2.545 2.618 2.636v3.317c0 0.445 0.36 0.805 0.805 0.805s0.805-0.36 0.805-0.805v-1.706l1.94 1.922c0.157 0.157 0.372 0.236 0.578 0.236s0.417-0.079 0.574-0.236c0.315-0.315 0.317-0.824 0.002-1.139l-1.866-1.868h1.599c0.445 0 0.805-0.36 0.805-0.805s-0.36-0.805-0.805-0.805h-3.21l-2.764-2.764 2.476-0.089c0.009-0 0.017-0.002 0.026-0.002 0.003-0 0.006-0.001 0.010-0.001 0.427-0.034 0.756-0.398 0.74-0.831-0.009-0.26-0.142-0.487-0.339-0.627l-1.488-1.485h3.741l2.292 2.292c0.157 0.157 0.363 0.236 0.57 0.236s0.412-0.079 0.569-0.236c0.315-0.315 0.315-0.824 0-1.139l-1.153-1.153h2.611c0.445 0 0.805-0.36 0.805-0.805s-0.36-0.805-0.805-0.805zM21.562 13.475l-1.5 1.613h-2.095l1.611-1.611 1.984-0.002zM18.278 10.286l0.038 2.148-1.546 1.537v-2.249l1.508-1.436zM13.666 10.294l1.493 1.431v2.17l-1.495-1.504 0.002-2.096zM10.401 13.578l2.122-0.076 1.586 1.586h-2.18l-1.528-1.509zM10.443 18.199l1.396-1.501h2.239l-1.486 1.486-2.149 0.015zM13.73 21.648l-0.092-2.26 1.52-1.529v2.32l-1.429 1.469zM18.343 21.612l-1.573-1.447v-2.382l1.551 1.542 0.023 2.287zM21.583 18.101l-2.106 0.076-1.479-1.479h2.179l1.406 1.403z"></path>
        </symbol>
    </defs>
</svg>