<?xml version="1.0" standalone="no"?>
<!DOCTYPE svg PUBLIC "-//W3C//DTD SVG 20010904//EN"
 "http://www.w3.org/TR/2001/REC-SVG-20010904/DTD/svg10.dtd">
<svg version="1.0" xmlns="http://www.w3.org/2000/svg"
 width="432.000000pt" height="432.000000pt" viewBox="0 0 432.000000 432.000000"
 preserveAspectRatio="xMidYMid meet">
<metadata>
Created by potrace 1.14, written by Peter Selinger 2001-2017
</metadata>
<g transform="translate(0.000000,432.000000) scale(0.100000,-0.100000)"
fill="#000000" stroke="none">
<path d="M1926 4292 c-26 -5 -86 -44 -108 -69 -46 -51 -61 -149 -33 -216 14
-33 13 -36 -3 -42 -23 -7 -92 -72 -123 -115 -94 -128 -108 -305 -37 -445 13
-24 17 -40 10 -43 -49 -16 -103 -100 -107 -167 -3 -48 18 -111 47 -142 20 -21
20 -24 5 -61 -12 -30 -15 -67 -12 -153 3 -107 11 -148 50 -241 5 -12 3 -18 -7
-18 -22 0 -88 -68 -105 -108 -17 -41 -19 -116 -3 -157 17 -44 57 -93 91 -110
28 -15 29 -18 24 -68 -15 -143 -12 -250 10 -339 6 -22 3 -26 -22 -31 -43 -9
-109 -61 -138 -111 -34 -59 -42 -148 -17 -210 36 -93 123 -155 222 -159 l50
-1 26 -81 c14 -44 29 -89 34 -100 9 -20 169 -493 276 -815 31 -91 59 -174 64
-185 4 -11 11 -28 14 -38 12 -37 34 -16 61 61 93 265 288 810 295 827 8 19 24
64 132 375 l40 115 63 0 c52 0 68 5 103 28 71 50 95 143 58 224 -32 72 -129
116 -205 94 l-33 -10 6 31 c3 17 6 34 6 38 0 4 26 7 58 6 95 -1 163 58 164
142 0 95 -66 165 -154 164 -41 -1 -42 0 -29 26 41 74 54 195 34 297 -11 50
-12 79 -5 102 11 37 2 91 -22 128 -9 14 -12 25 -7 25 20 0 54 72 54 115 0 82
-77 154 -152 143 -17 -3 -31 -4 -31 -3 0 1 9 27 19 58 15 44 19 80 18 159 -2
100 -1 104 25 126 59 50 61 152 3 208 -41 40 -95 51 -153 31 l-42 -15 -1 47
c-1 66 -8 99 -31 156 -37 87 -105 164 -185 207 l-42 22 6 62 c3 37 1 75 -7 98
-15 46 -60 100 -103 122 -31 16 -112 24 -151 16z"/>
<path d="M1474 2998 c-161 -141 -200 -193 -207 -273 -12 -129 136 -186 193
-75 20 39 25 70 35 195 7 84 21 170 30 186 12 18 -4 8 -51 -33z"/>
<path d="M2750 2727 c0 -1 5 -18 10 -37 6 -19 13 -66 15 -105 13 -171 19 -206
47 -252 43 -71 148 -58 178 22 33 88 -33 209 -175 317 -16 12 -36 30 -43 40
-11 15 -32 25 -32 15z"/>
<path d="M1490 2109 c-171 -145 -213 -203 -214 -293 -1 -78 48 -131 110 -120
83 15 104 65 118 274 3 36 10 87 16 114 6 27 9 50 8 52 -2 1 -19 -11 -38 -27z"/>
</g>
</svg>
